<svg width="20.000000" height="20.000000" viewBox="0 0 20 20" fill="none" xmlns="http://www.w3.org/2000/svg" xmlns:xlink="http://www.w3.org/1999/xlink">
	<desc>
			Created with Pixso.
	</desc>
	<defs>
		<clipPath id="clip39_16167">
			<rect id="Log-out" width="20.000000" height="20.000000" transform="translate(0.000000 -0.500000)" fill="white" fill-opacity="0"/>
		</clipPath>
	</defs>
	<rect id="Log-out" width="20.000000" height="20.000000" transform="translate(0.000000 -0.500000)" fill="#FFFFFF" fill-opacity="0"/>
	<g clip-path="url(#clip39_16167)">
		<path id="Vector" d="M10 15.12C10 15.29 9.93 15.44 9.81 15.56C9.7 15.68 9.54 15.75 9.37 15.75L2.7 15.75C2.54 15.75 2.38 15.68 2.26 15.56C2.15 15.44 2.08 15.29 2.08 15.12L2.08 3.87C2.08 3.7 2.15 3.55 2.26 3.43C2.38 3.31 2.54 3.25 2.7 3.25L9.37 3.25C9.54 3.25 9.7 3.31 9.81 3.43C9.93 3.55 10 3.7 10 3.87L10 6.37C10 6.54 10.06 6.69 10.18 6.81C10.3 6.93 10.45 7 10.62 7C10.79 7 10.95 6.93 11.06 6.81C11.18 6.69 11.25 6.54 11.25 6.37L11.25 3.87C11.25 3.37 11.05 2.9 10.7 2.54C10.34 2.19 9.87 2 9.37 2L2.7 2C2.21 2 1.73 2.19 1.38 2.54C1.03 2.9 0.83 3.37 0.83 3.87L0.83 15.12C0.83 15.62 1.03 16.09 1.38 16.45C1.73 16.8 2.21 17 2.7 17L9.37 17C9.87 17 10.34 16.8 10.7 16.45C11.05 16.09 11.25 15.62 11.25 15.12L11.25 12.62C11.25 12.45 11.18 12.3 11.06 12.18C10.95 12.06 10.79 12 10.62 12C10.45 12 10.3 12.06 10.18 12.18C10.06 12.3 10 12.45 10 12.62L10 15.12Z" fill="#004548" fill-opacity="1.000000" fill-rule="evenodd"/>
		<path id="Vector" d="M18.15 9.94C18.2 9.88 18.25 9.81 18.28 9.73C18.31 9.66 18.33 9.58 18.33 9.5C18.33 9.41 18.31 9.33 18.28 9.26C18.25 9.18 18.2 9.11 18.15 9.05L14.4 5.3C14.28 5.18 14.12 5.12 13.95 5.12C13.79 5.12 13.63 5.18 13.51 5.3C13.39 5.42 13.33 5.58 13.33 5.75C13.33 5.91 13.39 6.07 13.51 6.19L16.2 8.87L7.7 8.87C7.54 8.87 7.38 8.94 7.26 9.05C7.15 9.17 7.08 9.33 7.08 9.5C7.08 9.66 7.15 9.82 7.26 9.94C7.38 10.05 7.54 10.12 7.7 10.12L16.2 10.12L13.51 12.8C13.39 12.92 13.33 13.08 13.33 13.25C13.33 13.41 13.39 13.57 13.51 13.69C13.63 13.8 13.79 13.87 13.95 13.87C14.12 13.87 14.28 13.8 14.4 13.69L18.15 9.94Z" fill="#424242" fill-opacity="1.000000" fill-rule="evenodd"/>
	</g>
</svg>
