<svg width="20.000000" height="20.000000" viewBox="0 0 20 20" fill="none" xmlns="http://www.w3.org/2000/svg" xmlns:xlink="http://www.w3.org/1999/xlink">
	<desc>
			Created with Pixso.
	</desc>
	<defs>
		<clipPath id="clip39_16161">
			<rect id="Person" width="20.000000" height="20.000000" transform="translate(0.000000 -0.500000)" fill="white" fill-opacity="0"/>
		</clipPath>
	</defs>
	<rect id="Person" width="20.000000" height="20.000000" transform="translate(0.000000 -0.500000)" fill="#FFFFFF" fill-opacity="0"/>
	<g clip-path="url(#clip39_16161)">
		<path id="Vector" d="M10 9.5C10.99 9.5 11.94 9.1 12.65 8.4C13.35 7.69 13.75 6.74 13.75 5.75C13.75 4.75 13.35 3.8 12.65 3.09C11.94 2.39 10.99 2 10 2C9 2 8.05 2.39 7.34 3.09C6.64 3.8 6.25 4.75 6.25 5.75C6.25 6.74 6.64 7.69 7.34 8.4C8.05 9.1 9 9.5 10 9.5ZM12.5 5.75C12.5 6.41 12.23 7.04 11.76 7.51C11.29 7.98 10.66 8.25 10 8.25C9.33 8.25 8.7 7.98 8.23 7.51C7.76 7.04 7.5 6.41 7.5 5.75C7.5 5.08 7.76 4.45 8.23 3.98C8.7 3.51 9.33 3.25 10 3.25C10.66 3.25 11.29 3.51 11.76 3.98C12.23 4.45 12.5 5.08 12.5 5.75ZM17.5 15.75C17.5 17 16.25 17 16.25 17L3.75 17C3.75 17 2.5 17 2.5 15.75C2.5 14.5 3.75 10.75 10 10.75C16.25 10.75 17.5 14.5 17.5 15.75ZM16.25 15.74C16.24 15.43 16.05 14.51 15.21 13.66C14.39 12.85 12.86 12 10 12C7.13 12 5.6 12.85 4.78 13.66C3.94 14.51 3.75 15.43 3.75 15.74L16.25 15.74Z" fill="#004548" fill-opacity="1.000000" fill-rule="nonzero"/>
	</g>
</svg>
